<?xml version="1.0" encoding="UTF-8"?>
<svg id="Layer_2" data-name="Layer 2" xmlns="http://www.w3.org/2000/svg" viewBox="0 0 980 393.17">
  <defs>
    <style>
      .cls-1 {
        fill: #fac800;
      }

      .cls-2 {
        fill: #fff;
      }
    </style>
  </defs>
  <g id="Layer_1-2" data-name="Layer 1">
    <g>
      <g>
        <path class="cls-1" d="M162.46,279.42c0,.89-.5,1.71-1.29,2.11-2.38,1.2-4.8,2.35-7.22,3.45-9.59,4.71-21.33-2.69-21.16-13.39,0-22.16,0-68.81,0-92.65,0-1.48,1.34-2.58,2.8-2.31,3.38.64,6.82,1.01,10.28,1.1,2.15.06,4.1.1,5.81.59,6.35,1.8,10.78,7.65,10.78,14.23v86.87ZM162.46,98.08c0-1.5-1.39-2.62-2.86-2.31l-15.13,3.29c-9.17,1.99-12.01,9.51-11.65,15.35.35,5.84,4.08,12.96,13.42,13.84,4.37.42,9.21.76,13.53,1.4,1.42.21,2.69-.9,2.69-2.33v-29.23ZM160.6,44.94c1.08-.24,1.86-1.2,1.86-2.31V14.72c-.81-19.62-28.86-19.63-29.67,0,0,4.01,0,25.03,0,33.36,0,1.5,1.39,2.62,2.86,2.3l24.95-5.43ZM132.79,378.46c.81,19.61,28.86,19.63,29.67,0v-41.41c0-1.48-1.35-2.59-2.8-2.31-7.92,1.51-16.15,1.5-24.07-.02-1.45-.28-2.8.83-2.8,2.31v41.43Z"/>
        <path class="cls-2" d="M168.82,53.18c6.36-1.66,12.12-4.52,17.75-8.27,13.67-9.3,32.4-9.96,46.73-1.73,3.67,2.07,6.29,5.62,7.19,9.72.9,4.11,0,8.42-2.48,11.82-9.66,13.43-26.86,20.56-43.22,17.81-8.22-1.32-15.95-1.12-24.13.67-2.36.53-25.3,5.47-28.32,6.15-12.22,2.43-20.31,13.46-19.48,25.65.65,12.21,10.01,22.18,22.44,23.13,1.52.14,2.95.26,4.3.38,16.62.58,31.11,7.84,41.12,20.84,20.14,24.86,12.3,63.81-14.76,79.68-1.57.92-3.55-.22-3.55-2.04v-44.44c0-11-7.41-20.78-18.02-23.78-2.95-.84-5.74-.89-8.26-.96-44.84-1.27-69.03-53.25-41.08-88.2,6.36-7.96,14.79-13.94,24.39-17.3,4.31-1.73,29.89-6.77,34.88-8,1.12-.28,3.37-.83,4.49-1.12ZM174.4,92.64c-1.14.18-1.98,1.17-1.98,2.33v16.57c0,.93.55,1.79,1.4,2.16,16.31,7.23,32.93,12.23,50.65,15.24,10.05,1.71,22.74,6.85,29.47,14.48,14.9,17.35,13.24,37.38,3.73,55.59-3.93,8.46-8.31,16.36-13.4,24.16-20.09,30.84-52.47,55.65-86.1,70.79-16.1,7.86-35.58-4.53-35.36-22.38,0,0,0-32.76,0-44.36,0-1.84-2.02-2.97-3.6-2.01-3.34,2.02-6.44,4.41-9.29,7.13-16.57,15.5-21.61,41.46-11.79,61.97,8.59,19.13,28.58,31.74,49.55,31.6,6.18,0,12.26-1.04,18.08-3.1,25.54-10.46,51.97-26.1,71.8-45.2,24.12-23.38,52.32-63.53,56.8-97.61,2.81-24.82-6.18-49.95-25.77-65.35-9.74-7.67-26.92-12.81-39.15-14.89-9.28-1.57-18.12-3.86-27.06-6.74-9.23-2.97-22.93-1.21-27.99-.39ZM84.56,257.75c5.06-27.75-5.2-55.2-28.06-72.17-50.5-37.27-25.33-115.66,37.48-116.57,1.89,0,3.78.09,5.66.26.71.06,1.41-.19,1.9-.7,5.68-5.8,12.41-10.47,19.84-13.76.86-.38,1.43-1.22,1.43-2.16v-7.02c0-1.03-.67-1.96-1.66-2.26-33.77-10.17-72.59,0-96.42,26.38-33.4,35.26-32.91,93.39,1.02,128.13,11.38,11.63,23.06,15.81,28.3,32.96,1.8,5.65,2.42,11.32,1.88,17.35-.53,6.12-1.92,12.16-2.23,18.13-.48,9.48.29,18.6,2.36,27.87,7.78,34.75,27.54,58.03,63.77,67.91,1.5.41,2.99-.72,2.99-2.28v-26.46c0-.98-.61-1.85-1.53-2.21-28.66-11.26-43.08-41.98-36.74-73.41Z"/>
      </g>
      <g>
        <g>
          <path class="cls-2" d="M373.8,240.59c0-.87.7-1.57,1.57-1.57h42.59c10.63,0,18.77,2.62,23.88,7.18,5.38,4.83,7.87,10.76,7.87,18.49,0,10.08-6.21,16.56-15.46,19.74v.41c10.9,3.17,18.36,12.28,18.36,24.43,0,9.25-2.9,15.6-8.69,20.56-5.66,4.97-14.35,7.87-24.84,7.87h-43.7c-.87,0-1.57-.7-1.57-1.57v-95.53ZM415.48,278.76c8.69,0,14.63-4.14,14.63-11.87,0-7.31-5.38-11.59-14.21-11.59h-22.08v23.46h21.67ZM393.81,321.13h23.05c9.66,0,15.46-5.38,15.46-13.39,0-9.38-6.9-14.22-16.01-14.22h-22.5v27.6Z"/>
          <path class="cls-2" d="M503.11,281.35c0,.9-.75,1.61-1.64,1.57-11.46-.52-19.89,6.04-19.89,20.27v32.93c0,.87-.7,1.57-1.57,1.57h-15.62c-.87,0-1.57-.7-1.57-1.57v-67.66c0-.87.7-1.57,1.57-1.57h14.93c.87,0,1.57.7,1.57,1.57v9.75h.41c4.28-8.01,9.11-12.15,17.39-12.15,1.32,0,2.31.06,3.13.21.75.13,1.28.79,1.28,1.55v13.54Z"/>
          <path class="cls-2" d="M554.64,337.69c-.6,0-1.16-.34-1.42-.89-.8-1.64-1.33-4.36-1.67-6.98h-.28c-3.59,5.38-8.69,9.52-20.84,9.52-14.49,0-24.7-7.59-24.7-21.67,0-15.6,12.7-20.56,28.43-22.77,11.73-1.66,17.11-2.62,17.11-8s-4-8.42-11.87-8.42-12.51,2.76-13.5,8.61c-.13.76-.78,1.33-1.55,1.33h-13.61c-.94,0-1.67-.82-1.57-1.75,1.31-11.68,10.64-21.57,30.36-21.57,21.25,0,29.81,9.52,29.81,26.08v36.02c0,3.57.37,6.48,1.1,8.39.39,1.01-.4,2.1-1.48,2.1h-14.33ZM551.69,312.71v-10.63c-3.31,1.93-8.42,3.04-13.11,4.14-9.8,2.21-14.63,4.42-14.63,11.04s4.42,8.97,11.04,8.97c10.77,0,16.7-6.63,16.7-13.53Z"/>
          <path class="cls-2" d="M578.87,324.53c0-.77.28-1.51.79-2.08l35.65-40.37v-.41h-30.72c-.87,0-1.57-.7-1.57-1.57v-11.62c0-.87.7-1.57,1.57-1.57h50.96c.87,0,1.57.7,1.57,1.57v12.28c0,.77-.28,1.51-.79,2.08l-34.82,39.41v.41h35.83c.87,0,1.57.7,1.57,1.57v11.9c0,.87-.7,1.57-1.57,1.57h-56.89c-.87,0-1.57-.7-1.57-1.57v-11.59Z"/>
          <path class="cls-2" d="M649.72,266.89h15.62c.87,0,1.57.7,1.57,1.57v67.66c0,.87-.7,1.57-1.57,1.57h-15.62c-.87,0-1.57-.7-1.57-1.57v-67.66c0-.87.7-1.57,1.57-1.57Z"/>
          <circle class="cls-2" cx="657.53" cy="247.43" r="10.56"/>
          <path class="cls-2" d="M680.91,239.01h15.62c.87,0,1.57.7,1.57,1.57v95.53c0,.87-.7,1.57-1.57,1.57h-15.62c-.87,0-1.57-.7-1.57-1.57v-95.53c0-.87.7-1.57,1.57-1.57Z"/>
        </g>
        <g>
          <path class="cls-2" d="M375.58,56.56h26.59c1.1,0,1.98.89,1.98,1.98v146.7c0,1.1-.89,1.98-1.98,1.98h-26.59c-1.1,0-1.98-.89-1.98-1.98V58.55c0-1.1.89-1.98,1.98-1.98Z"/>
          <path class="cls-2" d="M429.53,56.56h103.92c1.1,0,1.98.89,1.98,1.98v21.95c0,1.1-.89,1.98-1.98,1.98h-75.35v36.24h63.55c1.1,0,1.98.89,1.98,1.98v22.16c0,1.1-.89,1.98-1.98,1.98h-63.55v60.39c0,1.1-.89,1.98-1.98,1.98h-26.59c-1.1,0-1.98-.89-1.98-1.98V58.55c0-1.1.89-1.98,1.98-1.98Z"/>
          <path class="cls-2" d="M551.75,56.56h39.49c.89,0,1.67.59,1.92,1.45l20.88,74.2c5.27,18.96,9.48,40.67,9.48,40.67h.42s4-21.7,9.27-40.67l20.88-74.2c.24-.86,1.02-1.45,1.92-1.45h40.13c1.1,0,1.98.89,1.98,1.98v146.7c0,1.1-.89,1.98-1.98,1.98h-24.48c-1.1,0-1.98-.89-1.98-1.98v-84.41c0-12.22,1.26-31.19,1.26-31.19h-.42s-3.37,17.7-6.53,28.66l-25.5,87.49c-.25.85-1.03,1.43-1.91,1.43h-26.29c-.89,0-1.67-.59-1.91-1.45l-24.88-87.48c-3.16-10.96-6.53-28.66-6.53-28.66h-.42s1.26,18.96,1.26,31.19v84.41c0,1.1-.89,1.98-1.98,1.98h-24.06c-1.1,0-1.98-.89-1.98-1.98V58.55c0-1.1.89-1.98,1.98-1.98Z"/>
          <path class="cls-2" d="M716.63,160.66h26.09c.98,0,1.83.7,1.97,1.67,2.54,16.9,12.88,23.62,33.71,23.62,15.59,0,29.29-5.48,29.29-19.39,0-14.75-14.33-17.7-37.3-22.97-26.97-6.11-51.63-13.28-51.63-44.67,0-29.71,24.23-45.09,57.74-45.09s54.75,15.83,57.95,44.77c.13,1.18-.78,2.22-1.97,2.22h-25.39c-.96,0-1.79-.69-1.95-1.63-2.33-14.08-13.83-21.12-28.85-21.12-16.44,0-27.18,6.95-27.18,17.7,0,12.22,10.54,15.8,32.87,20.65,30.98,6.74,56.26,14.12,56.26,46.57,0,30.55-24.65,47.62-58.58,47.62-39.95,0-63-17.31-65.01-47.8-.08-1.15.82-2.14,1.98-2.14Z"/>
          <path class="cls-2" d="M897.4,56.56h28.78c.84,0,1.6.53,1.88,1.33l51.84,147.09c.39,1.1-.43,2.25-1.59,2.25h-27.58c-1.1,0-2.08-.72-2.41-1.77l-9.56-30.26h-54.37l-9.35,30.25c-.33,1.06-1.31,1.78-2.42,1.78h-26.74c-1.16,0-1.97-1.14-1.59-2.24l51.23-147.09c.28-.8,1.03-1.34,1.88-1.34ZM891.56,151.81h39.83l-13.49-43.41c-2.53-8.01-6.11-23.18-6.11-23.18h-.42s-3.79,15.17-6.32,23.18l-13.49,43.41Z"/>
        </g>
      </g>
    </g>
  </g>
</svg>