<?xml version="1.0" standalone="no"?>
<!DOCTYPE svg PUBLIC "-//W3C//DTD SVG 20010904//EN"
 "http://www.w3.org/TR/2001/REC-SVG-20010904/DTD/svg10.dtd">
<svg version="1.0" xmlns="http://www.w3.org/2000/svg"
 width="1080.000000pt" height="1080.000000pt" viewBox="0 0 1080.000000 1080.000000"
 preserveAspectRatio="xMidYMid meet">
<metadata>
Created by potrace 1.14, written by Peter Selinger 2001-2017
</metadata>
<g transform="translate(0.000000,1080.000000) scale(0.100000,-0.100000)"
fill="#000000" stroke="none">
<path d="M5050 10789 c-1264 -76 -2475 -613 -3402 -1508 -1091 -1054 -1680
-2489 -1645 -4006 16 -656 137 -1263 373 -1857 412 -1041 1137 -1928 2078
-2543 736 -481 1549 -764 2456 -855 177 -18 619 -24 815 -11 1184 77 2263 510
3165 1269 150 127 482 456 606 602 550 647 938 1392 1138 2185 104 414 153
775 163 1210 31 1338 -422 2613 -1292 3635 -121 141 -443 465 -585 586 -898
768 -1996 1216 -3175 1294 -169 11 -507 11 -695 -1z m485 -1228 c74 -35 137
-101 159 -167 14 -43 16 -97 14 -399 l-3 -350 -180 -37 c-99 -21 -229 -49
-288 -63 -163 -39 -149 -78 -144 410 4 450 3 446 76 528 96 107 241 138 366
78z m1319 -771 c127 -13 226 -40 326 -90 103 -52 143 -88 181 -165 25 -52 31
-76 31 -134 1 -60 -4 -81 -31 -135 -36 -73 -134 -184 -224 -252 -73 -56 -238
-137 -322 -159 -129 -34 -241 -40 -396 -22 -166 20 -294 22 -406 6 -82 -11
-622 -126 -756 -161 -135 -35 -255 -132 -320 -256 -45 -88 -62 -158 -60 -262
3 -223 146 -418 358 -488 38 -13 114 -25 205 -32 235 -18 354 -50 523 -138
268 -140 489 -418 562 -706 39 -152 50 -277 36 -401 -33 -295 -139 -529 -326
-720 -100 -102 -215 -185 -257 -185 -17 0 -31 7 -38 19 -6 13 -10 200 -10 538
0 321 -4 535 -11 563 -49 215 -276 400 -490 400 -161 0 -408 54 -534 117 -152
76 -324 220 -422 353 -64 86 -149 256 -178 355 -71 247 -70 470 6 705 88 274
318 539 584 672 107 53 271 98 681 183 348 72 445 106 646 228 186 112 289
151 453 166 44 5 82 9 85 9 3 1 50 -3 104 -8z m-2350 -50 c103 -12 333 -65
353 -81 9 -8 13 -41 13 -115 l0 -104 -72 -36 c-109 -54 -234 -140 -313 -215
l-70 -66 -175 -6 c-257 -9 -377 -37 -586 -137 -468 -225 -767 -709 -767 -1240
0 -265 73 -508 224 -740 70 -109 241 -284 383 -394 282 -219 481 -536 558
-886 19 -92 22 -133 22 -330 0 -179 -3 -242 -18 -310 -24 -114 -32 -360 -16
-486 36 -293 161 -560 355 -763 106 -111 204 -183 350 -257 l120 -60 3 -314
c2 -337 4 -330 -50 -330 -41 0 -222 62 -354 122 -536 244 -873 688 -1018 1343
-59 272 -64 534 -15 830 39 240 15 441 -75 630 -65 135 -142 222 -363 407
-314 263 -491 510 -619 861 -81 224 -118 440 -117 697 1 250 39 473 119 688
111 299 256 517 499 750 304 292 694 478 1124 537 118 16 385 18 505 5z m2017
-1119 c40 -10 142 -38 224 -61 168 -47 266 -69 460 -105 246 -46 513 -140 685
-242 74 -44 122 -83 215 -177 131 -132 199 -224 268 -361 124 -251 170 -449
170 -735 0 -229 -37 -411 -134 -670 -233 -616 -752 -1336 -1282 -1777 -319
-265 -715 -509 -1144 -704 -199 -90 -272 -115 -403 -134 -579 -88 -1134 267
-1295 828 -90 315 -34 674 149 956 61 94 199 237 289 299 85 58 95 62 124 51
l22 -8 3 -538 c3 -524 4 -540 26 -604 70 -209 289 -369 504 -369 86 0 153 17
258 67 52 25 111 52 130 60 57 25 316 171 435 246 434 274 832 634 1108 1002
157 210 264 386 396 654 139 282 188 465 178 661 -18 334 -199 614 -493 763
-98 50 -261 99 -461 138 -229 45 -427 97 -618 163 -183 62 -378 144 -392 163
-9 12 -13 70 -13 205 0 231 -6 221 136 237 55 6 113 13 129 15 61 9 253 -5
326 -23z m-823 -83 c9 -9 12 -100 12 -350 0 -323 -1 -338 -19 -348 -11 -5 -26
-8 -33 -5 -7 2 -89 11 -183 20 -198 18 -230 30 -303 110 -58 63 -77 119 -76
220 1 82 24 143 78 203 48 53 104 75 282 113 81 17 157 35 169 39 30 13 59 12
73 -2z m-338 -1737 c80 -6 129 -14 160 -28 71 -32 132 -88 162 -151 l28 -57 0
-983 0 -983 -107 -52 c-93 -45 -116 -52 -179 -55 -49 -3 -88 1 -121 12 -63 21
-154 101 -185 164 l-23 47 -3 1033 c-2 751 1 1038 9 1054 10 19 16 20 78 13
36 -3 118 -10 181 -14z m-9 -3368 c101 -3 198 -1 249 6 61 8 87 8 96 0 11 -9
14 -102 14 -500 0 -468 -1 -491 -21 -543 -14 -40 -35 -69 -74 -105 -72 -65
-131 -85 -235 -79 -89 5 -138 29 -207 100 -78 80 -77 71 -81 619 -3 449 -2
488 14 504 12 12 26 15 48 11 17 -4 106 -9 197 -13z"/>
</g>
</svg>
